<svg id="Line_expand" height="512" viewBox="0 0 512 512" width="512" xmlns="http://www.w3.org/2000/svg" data-name="Line expand"><g id="_19_copy_3" data-name="19 copy 3"><g><g><path d="m355.167 462.569a27.889 27.889 0 0 1 -9.157-1.549l-4.634-1.609 5.248-15.115 4.633 1.608a12.013 12.013 0 0 0 15.271-7.4l64.259-185.126 15.115 5.246-64.258 185.125a28.05 28.05 0 0 1 -26.477 18.82z"/><path d="m451.456 242.623-15.115-5.246 42.99-123.854a12 12 0 0 0 -7.4-15.271l-188.943-65.583a12 12 0 0 0 -15.271 7.4l-.886 2.554-15.116-5.248.887-2.553a28 28 0 0 1 35.633-17.269l188.941 65.584a28 28 0 0 1 17.27 35.633z"/><path d="m381.483 346.623-15.115-5.246 76.174-219.452-151.153-52.467-4.57 13.165-15.119-5.246 7.2-20.723a8 8 0 0 1 10.181-4.934l166.268 57.713a8 8 0 0 1 4.934 10.18z"/></g><path d="m159.03 496.009a28.05 28.05 0 0 1 -26.43-18.833l-112.8-324.976a28 28 0 0 1 17.271-35.633l32.306-11.217 5.246 15.115-32.308 11.214a12 12 0 0 0 -7.4 15.271l112.8 324.98a12 12 0 0 0 15.271 7.4l188.941-65.583a12 12 0 0 0 7.4-15.271l-112.799-324.976a12.017 12.017 0 0 0 -15.271-7.4l-140.633 48.811-5.248-15.111 140.634-48.82a28.035 28.035 0 0 1 35.634 17.271l112.8 324.979a28 28 0 0 1 -17.27 35.633l-188.939 65.583a28.041 28.041 0 0 1 -9.205 1.563z"/><path d="m210.206 318.471a7.98 7.98 0 0 1 -3.6-.859l-62.747-31.68a34.938 34.938 0 0 1 -15.638-44.878 31.542 31.542 0 0 1 43.4-15.251l10.874 4.869 5.548-10.57c8.2-17.927 21.086-20.078 28.068-19.77a32.858 32.858 0 0 1 11.419 2.724 26.815 26.815 0 0 1 4.687 2.479 34.934 34.934 0 0 1 14.907 44.488l-29.659 63.82a8 8 0 0 1 -7.255 4.628zm-53.2-80.211a15.319 15.319 0 0 0 -5.029.848 15.732 15.732 0 0 0 -9.182 8.538 18.723 18.723 0 0 0 8.345 24.041l55.294 27.913 26.141-56.249a18.7 18.7 0 0 0 -8.38-23.963 8.085 8.085 0 0 1 -1.055-.655c-.9-.537-6.176-3.492-11.186-2.04-3.678 1.066-6.853 4.5-9.437 10.219-.064.143-.133.283-.206.422l-9.145 17.425a8 8 0 0 1 -10.353 3.584l-17.929-8.028c-.139-.062-.276-.129-.411-.2a16.21 16.21 0 0 0 -7.467-1.855zm63.434-23.018a7.778 7.778 0 0 0 2.448 3.3 7.971 7.971 0 0 1 -2.448-3.3zm-.565-3.054a7.738 7.738 0 0 0 .062 1.092 7.781 7.781 0 0 1 -.062-1.092z"/><path d="m221.631 123.753-27.56-13.353a8 8 0 1 1 6.977-14.4l13.163 6.38 6.38-13.163a8 8 0 0 1 14.4 6.978z"/><path d="m185.28 458.165-27.561-13.358a8 8 0 0 1 6.978-14.4l13.163 6.38 6.379-13.163a8 8 0 1 1 14.4 6.979z"/></g></g></svg>