<svg id="Capa_1" enable-background="new 0 0 512 512" height="512" viewBox="0 0 512 512" width="512" xmlns="http://www.w3.org/2000/svg"><g><path d="m397.414 342.092 114.586 35.905-38.612-112.208-249.994-250.044c-20.988-20.994-55.142-20.993-76.131 0-10.167 10.17-15.768 23.691-15.768 38.073s5.6 27.904 15.768 38.073zm8.205-34.293-142.2-142.228 33.641-33.648 141.059 141.087zm-163.445-163.477-20.557-20.561 33.641-33.648 20.557 20.561zm191.371 177.6 20.014-21.423 10.681 31.042zm-265.037-284.928c9.277-9.277 24.367-9.275 33.641 0l31.864 31.87-33.641 33.648-31.864-31.871c-4.493-4.493-6.967-10.468-6.967-16.823s2.474-12.33 6.967-16.824z"/><path d="m0 512h511.899l-511.899-511.892zm30.045-439.357 409.35 409.307h-50v-24.252h-30.045v24.252h-30.049v-24.252h-30.045v24.252h-30.049v-24.252h-30.045v24.252h-30.049v-24.252h-30.045v24.252h-30.048v-24.252h-30.045v24.252h-30.049v-24.252h-30.045v24.252h-28.836z"/><path d="m88.042 208.805v215.665h215.391zm30.045 72.605 112.866 113.009h-112.866z"/></g></svg>