<svg height="512" viewBox="0 0 512 512" width="512" xmlns="http://www.w3.org/2000/svg"><g id="Solid"><circle cx="136" cy="360" r="8"/><circle cx="136" cy="296" r="8"/><path d="m128 168a8 8 0 0 0 13.654 5.654l-11.308-11.308a7.971 7.971 0 0 0 -2.346 5.654z"/><path d="m128 104a8 8 0 0 0 13.654 5.654l-11.308-11.308a7.971 7.971 0 0 0 -2.346 5.654z"/><path d="m416 32h-16v76.741a23.827 23.827 0 0 1 16-6.113z"/><path d="m448 109.4v-77.4h-16v76.741c.33.3 8 7.945 8 7.945s6.484-6.234 8-7.286z"/><path d="m400 156.686 16-16v-22.055a7.974 7.974 0 0 0 -5.657 2.34l-10.343 10.343z"/><circle cx="136" cy="424" r="8"/><path d="m128 232a8 8 0 0 0 13.654 5.654l-11.308-11.308a7.971 7.971 0 0 0 -2.346 5.654z"/><path d="m283.289 239.373h125.421v29.255h-125.421z" transform="matrix(.707 -.707 .707 .707 -78.264 319.054)"/><path d="m282.198 317.802 13.575-2.715-10.86-10.86z"/><path d="m400 424c0 .09-.01.178-.013.268s-.008.181-.014.273a8.044 8.044 0 0 1 -.125 1v.017a7.849 7.849 0 0 1 -.273.994c-.029.084-.059.167-.09.25a8.046 8.046 0 0 1 -.4.9c-.009.018-.016.036-.026.054a8.024 8.024 0 0 1 -.552.878c-.051.072-.1.143-.159.215a8 8 0 0 1 -.693.805l-50.341 50.346h68.686v-252.686l-16 16z"/><path d="m432 480h16v-284.687l-16 16.001z"/><path d="m465.373 120a14.531 14.531 0 0 0 -10.344 4.284l-3.715 3.716 20.686 20.686 3.716-3.716a14.627 14.627 0 0 0 -10.343-24.97z"/><path d="m336 432v36.687l36.686-36.687z"/><path d="m384 259.314-66.343 66.343a8.006 8.006 0 0 1 -4.088 2.188l-40 8a8 8 0 0 1 -9.414-9.414l7.99-39.948v-.025-.027a7.966 7.966 0 0 1 2.187-4.088l109.668-109.657v-25.372l-26.343 26.343-11.314-11.314 37.657-37.657v-92.686h-328v32h24v16h-24v56h24v16h-24v56h24v16h-24v56h24v16h-24v56h24v16h-24v56h24v16h-24v40h264v-56a8 8 0 0 1 8-8h56zm-200-163.314h160v16h-160zm0 64h144v16h-144zm0 64h120v16h-120zm0 64h72v16h-72zm-48 160a24 24 0 1 1 24-24 24.027 24.027 0 0 1 -24 24zm0-64a24 24 0 1 1 24-24 24.027 24.027 0 0 1 -24 24zm0-64a24 24 0 1 1 24-24 24.027 24.027 0 0 1 -24 24zm24-88a24.008 24.008 0 1 1 -13.659-21.655l16-16 11.314 11.314-16 16a23.861 23.861 0 0 1 2.345 10.341zm-2.345-74.341a24.008 24.008 0 1 1 -11.314-11.314l16-16 11.314 11.314zm0-64a24.008 24.008 0 1 1 -11.314-11.314l16-16 11.314 11.314zm146.345 338.341h-120v-16h120zm40-64h-160v-16h160z"/><path d="m391.574 159.372h68.852v29.255h-68.852z" transform="matrix(.707 -.707 .707 .707 1.736 352.191)"/></g></svg>