<?xml version="1.0" encoding="iso-8859-1"?>
<!-- Generator: Adobe Illustrator 19.0.0, SVG Export Plug-In . SVG Version: 6.00 Build 0)  -->
<svg version="1.1" id="Capa_1" xmlns="http://www.w3.org/2000/svg" xmlns:xlink="http://www.w3.org/1999/xlink" x="0px" y="0px"
	 viewBox="0 0 512 512" style="enable-background:new 0 0 512 512;" xml:space="preserve">
<g>
	<g>
		<path d="M256,180.072c-41.867,0-75.928,34.061-75.928,75.928s34.061,75.928,75.928,75.928s75.928-34.062,75.928-75.928
			C331.928,214.134,297.867,180.072,256,180.072z M301.892,271H241v-60.892h30V241h30.892V271z"/>
	</g>
</g>
<g>
	<g>
		<rect x="150.72" y="451.95" width="210.55" height="60.05"/>
	</g>
</g>
<g>
	<g>
		<path d="M403.758,180.436c-10.333-20.169-24.933-38.252-42.482-52.691V90.048H150.724v37.697
			c-17.55,14.439-32.149,32.521-42.482,52.691c-11.887,23.2-18.169,49.33-18.169,75.564s6.283,52.364,18.169,75.564
			c10.333,20.169,24.933,38.252,42.482,52.691v37.697h210.552v-37.697c17.55-14.439,32.149-32.521,42.482-52.691
			c11.887-23.2,18.169-49.33,18.169-75.564S415.644,203.636,403.758,180.436z M256,361.928
			c-58.409,0-105.928-47.519-105.928-105.928S197.591,150.072,256,150.072S361.928,197.591,361.928,256S314.409,361.928,256,361.928
			z"/>
	</g>
</g>
<g>
	<g>
		<rect x="150.72" width="210.55" height="60.05"/>
	</g>
</g>
<g>
</g>
<g>
</g>
<g>
</g>
<g>
</g>
<g>
</g>
<g>
</g>
<g>
</g>
<g>
</g>
<g>
</g>
<g>
</g>
<g>
</g>
<g>
</g>
<g>
</g>
<g>
</g>
<g>
</g>
</svg>
